<?xml version="1.0" standalone="no"?>
<!DOCTYPE svg PUBLIC "-//W3C//DTD SVG 20010904//EN"
 "http://www.w3.org/TR/2001/REC-SVG-20010904/DTD/svg10.dtd">
<svg version="1.0" xmlns="http://www.w3.org/2000/svg"
 width="100.000000pt" height="100.000000pt" viewBox="0 0 100.000000 100.000000"
 preserveAspectRatio="xMidYMid meet">
<metadata>
Created by potrace 1.11, written by Peter Selinger 2001-2013
</metadata>
<g transform="translate(0.000000,100.000000) scale(0.100000,-0.100000)"
fill="#000000" stroke="none">
<path d="M542 887 c-18 -18 -32 -40 -32 -48 0 -8 25 -40 56 -71 l57 -57 -166
-166 -165 -167 -58 56 c-32 31 -64 56 -70 56 -19 0 -72 -48 -79 -71 -5 -15 1
-29 19 -48 l26 -27 -25 -30 c-31 -36 -31 -51 -3 -81 l21 -23 -21 -23 c-27 -29
-28 -61 -2 -87 26 -26 64 -25 90 2 l20 22 23 -22 c30 -28 42 -28 80 4 l30 25
24 -25 c13 -14 32 -26 42 -26 21 0 81 63 81 84 0 7 -25 39 -56 71 l-56 57 83
82 c46 46 121 120 166 165 l82 82 58 -55 c32 -31 65 -56 74 -56 20 0 79 61 79
83 0 9 -12 27 -27 41 l-27 25 27 27 c32 32 34 50 7 79 l-20 22 20 25 c25 33
25 63 0 88 -26 26 -58 25 -87 -2 l-23 -21 -23 21 c-30 29 -48 28 -82 -4 l-27
-25 -27 25 c-35 34 -51 33 -89 -7z m263 -223 l74 -72 -22 -20 -22 -19 -142
143 -143 143 21 20 21 20 70 -72 c39 -40 103 -104 143 -143z m57 45 c-19 -22
-17 -22 -109 70 -61 61 -63 65 -46 81 17 17 21 15 94 -57 72 -71 76 -76 61
-94z m15 156 c2 -6 -2 -19 -9 -28 -12 -15 -16 -16 -32 -4 -17 12 -18 16 -5 30
15 18 40 18 46 2z m-360 -380 c-149 -150 -163 -162 -179 -148 -16 15 -5 28
145 178 149 150 163 162 179 147 16 -14 6 -27 -145 -177z m-89 -341 l-19 -21
-142 141 -143 141 19 22 20 22 142 -142 c143 -142 143 -142 123 -163z m-189
86 c69 -68 70 -71 54 -90 -17 -20 -19 -19 -95 57 -59 59 -75 80 -66 90 19 23
35 14 107 -57z m-71 -62 c14 -14 -2 -48 -23 -48 -21 0 -27 17 -15 40 12 23 21
25 38 8z"/>
</g>
</svg>
